<mxfile host="app.diagrams.net" agent="Mozilla/5.0 (Windows NT 10.0; Win64; x64) AppleWebKit/537.36 (KHTML, like Gecko) Chrome/127.0.0.0 Safari/537.36" version="24.7.7">
  <diagram name="第 1 页" id="i78vZYNMH3eGaz_cFO28">
    <mxGraphModel dx="680" dy="-1293" grid="1" gridSize="10" guides="1" tooltips="1" connect="1" arrows="1" fold="1" page="1" pageScale="1" pageWidth="1169" pageHeight="827" math="0" shadow="0">
      <root>
        <mxCell id="0" />
        <mxCell id="1" parent="0" />
        <mxCell id="d0C482hEBYlxyHOYFQJg-1" value="&lt;span style=&quot;font-size: 12px; font-weight: 700;&quot;&gt;Input text:&amp;nbsp;&lt;/span&gt;&lt;b style=&quot;white-space-collapse: preserve; color: rgb(6, 6, 7); font-size: 12px; letter-spacing: 0.5px;&quot;&gt;A young child, with a beaming smile, eagerly slides down the slide.&lt;/b&gt;" style="rounded=0;whiteSpace=wrap;html=1;fillColor=#e1d5e7;strokeColor=default;fontSize=12;align=center;fontFamily=Times New Roman;" parent="1" vertex="1">
          <mxGeometry x="220" y="1830" width="700" height="30" as="geometry" />
        </mxCell>
        <mxCell id="d0C482hEBYlxyHOYFQJg-2" value="&lt;b style=&quot;font-size: 12px;&quot;&gt;&lt;font style=&quot;font-size: 12px;&quot;&gt;If SNR is low,&amp;nbsp;&lt;/font&gt;&lt;/b&gt;&lt;b style=&quot;font-size: 12px;&quot;&gt;&lt;font style=&quot;font-size: 12px;&quot;&gt;then length = 70%-80%&lt;/font&gt;&lt;/b&gt;" style="rounded=0;whiteSpace=wrap;html=1;fillColor=#dae8fc;strokeColor=default;fontSize=12;align=center;fontFamily=Times New Roman;" parent="1" vertex="1">
          <mxGeometry x="220" y="1890" width="260" height="30" as="geometry" />
        </mxCell>
        <mxCell id="d0C482hEBYlxyHOYFQJg-5" value="&lt;b style=&quot;font-size: 12px;&quot;&gt;&lt;font style=&quot;font-size: 12px;&quot;&gt;Output text after knowledge base encoding&lt;/font&gt;&lt;/b&gt;" style="rounded=0;whiteSpace=wrap;html=1;fillColor=#ffe6cc;strokeColor=default;fontSize=12;align=center;fontFamily=Times New Roman;" parent="1" vertex="1">
          <mxGeometry x="480" y="1860" width="440" height="30" as="geometry" />
        </mxCell>
        <mxCell id="d0C482hEBYlxyHOYFQJg-7" value="&lt;font color=&quot;#060607&quot;&gt;&lt;span style=&quot;letter-spacing: 0.5px; white-space-collapse: preserve;&quot;&gt;&lt;b&gt;A young child, smiling, slides down the slide.&lt;/b&gt;&lt;/span&gt;&lt;/font&gt;" style="rounded=0;whiteSpace=wrap;html=1;fillColor=#dae8fc;strokeColor=default;fontSize=12;align=center;fontFamily=Times New Roman;" parent="1" vertex="1">
          <mxGeometry x="480" y="1890" width="440" height="30" as="geometry" />
        </mxCell>
        <mxCell id="d0C482hEBYlxyHOYFQJg-8" value="&lt;b style=&quot;white-space-collapse: preserve; color: rgb(6, 6, 7); font-size: 12px; letter-spacing: 0.5px;&quot;&gt;A young child, with a beaming smile, eagerly slides down the slide.&lt;/b&gt;" style="rounded=0;whiteSpace=wrap;html=1;fillColor=#f8cecc;strokeColor=default;fontSize=12;align=center;fontFamily=Times New Roman;" parent="1" vertex="1">
          <mxGeometry x="480" y="1950" width="440" height="30" as="geometry" />
        </mxCell>
        <mxCell id="d0C482hEBYlxyHOYFQJg-9" value="&lt;b style=&quot;white-space-collapse: preserve; color: rgb(6, 6, 7); letter-spacing: 0.5px;&quot;&gt;A young child, with a smile, &lt;/b&gt;&lt;b style=&quot;white-space-collapse: preserve; color: rgb(6, 6, 7); letter-spacing: 0.5px;&quot;&gt;eagerly &lt;/b&gt;&lt;b style=&quot;white-space-collapse: preserve; color: rgb(6, 6, 7); letter-spacing: 0.5px;&quot;&gt;slides down the slide.&lt;/b&gt;" style="rounded=0;whiteSpace=wrap;html=1;fillColor=#d5e8d4;strokeColor=default;fontSize=12;align=center;fontFamily=Times New Roman;" parent="1" vertex="1">
          <mxGeometry x="480" y="1920" width="440" height="30" as="geometry" />
        </mxCell>
        <mxCell id="DJXnYnMKUjLRa2AK-GMz-1" value="&lt;b style=&quot;font-size: 12px;&quot;&gt;&lt;font style=&quot;font-size: 12px;&quot;&gt;Fuzzy rules&lt;/font&gt;&lt;/b&gt;" style="rounded=0;whiteSpace=wrap;html=1;fillColor=#ffe6cc;strokeColor=default;fontSize=12;align=center;fontFamily=Times New Roman;" parent="1" vertex="1">
          <mxGeometry x="220" y="1860" width="260" height="30" as="geometry" />
        </mxCell>
        <mxCell id="DJXnYnMKUjLRa2AK-GMz-2" value="&lt;b style=&quot;font-size: 12px;&quot;&gt;&lt;font style=&quot;font-size: 12px;&quot;&gt;If SNR is middle,&amp;nbsp;&lt;/font&gt;&lt;/b&gt;&lt;b style=&quot;font-size: 12px;&quot;&gt;&lt;font style=&quot;font-size: 12px;&quot;&gt;then length = 80%-90%&lt;/font&gt;&lt;/b&gt;" style="rounded=0;whiteSpace=wrap;html=1;fillColor=#d5e8d4;strokeColor=default;fontSize=12;align=center;fontFamily=Times New Roman;" parent="1" vertex="1">
          <mxGeometry x="220" y="1920" width="260" height="30" as="geometry" />
        </mxCell>
        <mxCell id="DJXnYnMKUjLRa2AK-GMz-3" value="&lt;b style=&quot;font-size: 12px;&quot;&gt;&lt;font style=&quot;font-size: 12px;&quot;&gt;If SNR is high, then length = 100%&lt;/font&gt;&lt;/b&gt;" style="rounded=0;whiteSpace=wrap;html=1;fillColor=#f8cecc;strokeColor=default;fontSize=12;align=center;fontFamily=Times New Roman;" parent="1" vertex="1">
          <mxGeometry x="220" y="1950" width="260" height="30" as="geometry" />
        </mxCell>
        <mxCell id="kfJYbJEfUFsbAKyAoI0t-1" value="&lt;b&gt;The length in fuzzy rules means the output length of LLM when proceeding knowledge base encoding.&lt;/b&gt;" style="text;html=1;align=center;verticalAlign=middle;whiteSpace=wrap;rounded=0;fontFamily=Times New Roman;" parent="1" vertex="1">
          <mxGeometry x="290" y="1980" width="560" height="30" as="geometry" />
        </mxCell>
      </root>
    </mxGraphModel>
  </diagram>
</mxfile>
